<?xml version="1.0" encoding="utf-8"?>
<!-- Generator: Adobe Illustrator 21.0.0, SVG Export Plug-In . SVG Version: 6.00 Build 0)  -->
<svg version="1.1" id="Calque_1" xmlns="http://www.w3.org/2000/svg" xmlns:xlink="http://www.w3.org/1999/xlink" x="0px" y="0px"
	 viewBox="0 0 534 442" style="enable-background:new 0 0 534 442;" xml:space="preserve">
<style type="text/css">
	.st0{clip-path:url(#SVGID_2_);}
	.st1{fill:#37BC9B;}
	.st2{fill:#F2F2F2;}
	.st3{opacity:0.7;}
	.st4{opacity:0.7;fill:url(#SVGID_3_);enable-background:new    ;}
	.st5{fill:#6C63FF;}
	.st6{opacity:0.1;enable-background:new    ;}
	.st7{fill:#CECECE;}
	.st8{fill:none;stroke:#873F3F;stroke-width:8;stroke-miterlimit:10;}
	.st9{opacity:0.7;fill:url(#SVGID_4_);enable-background:new    ;}
	.st10{fill:#C4C4C4;}
	.st11{fill:none;stroke:#BDBDBD;stroke-width:5;stroke-miterlimit:10;}
	.st12{fill:#B84733;}
	.st13{fill:#E9573F;}
	.st14{fill:#CCCCCC;}
	.st15{fill:#09090C;}
	.st16{opacity:5.000000e-02;enable-background:new    ;}
	.st17{fill:#FDA57D;}
	.st18{fill:#2F2E41;}
	.st19{fill:#495057;}
	.st20{fill:url(#SVGID_5_);}
	.st21{fill:#873F3F;}
	.st22{fill:#535461;}
	.st23{opacity:0.7;fill:url(#SVGID_6_);enable-background:new    ;}
	.st24{fill:#3E3F49;}
	.st25{fill:#E0E0E0;}
</style>
<g>
	<defs>
		<rect id="SVGID_1_" y="0" width="534" height="442"/>
	</defs>
	<clipPath id="SVGID_2_">
		<use xlink:href="#SVGID_1_"  style="overflow:visible;"/>
	</clipPath>
	<g class="st0">
		<path class="st1" d="M81.1,355.6c0,26.7-15.9,36.1-35.5,36.1c-0.5,0-0.9,0-1.4,0c-0.9,0-1.8-0.1-2.7-0.1
			c-17.7-1.3-31.4-11.1-31.4-35.9c0-25.7,32.9-58.2,35.3-60.6l0,0c0.1-0.1,0.1-0.1,0.1-0.1S81.1,328.8,81.1,355.6z"/>
		<path class="st2" d="M44.3,387.5l13-18.1l-13,20.1l0,2.1c-0.9,0-1.8-0.1-2.7-0.1l1.4-26.7l0-0.2l0,0l0.1-2.5l-13-20.2l13.1,18.3
			l0,0.5l1.1-20.2l-11.2-20.8l11.3,17.3l1.1-41.9l0-0.1v0.1l-0.2,33l11.1-13.1l-11.2,15.9l-0.3,18.1l10.4-17.4l-10.4,20l-0.2,10.1
			l15.1-24.2l-15.1,27.7L44.3,387.5z"/>
		<g class="st3">
			
				<linearGradient id="SVGID_3_" gradientUnits="userSpaceOnUse" x1="480.8295" y1="244.038" x2="480.8295" y2="280.081" gradientTransform="matrix(1 0 0 -1 0 441.89)">
				<stop  offset="0" style="stop-color:#808080;stop-opacity:0.25"/>
				<stop  offset="0.5351" style="stop-color:#808080;stop-opacity:0.12"/>
				<stop  offset="1" style="stop-color:#808080;stop-opacity:0.1"/>
			</linearGradient>
			<path class="st4" d="M492.7,168.2v-6.4h-32.2v29.8c0,1.7,0.7,3.3,1.8,4.4c1.2,1.2,2.8,1.8,4.4,1.8h19.6c1.7,0,3.3-0.7,4.4-1.8
				c1.2-1.2,1.8-2.8,1.8-4.4V185c2.2,0,4.3-0.9,5.9-2.4c1.6-1.6,2.5-3.7,2.5-5.9c0-2.2-0.9-4.3-2.5-5.9
				C497.1,169.1,495,168.2,492.7,168.2z M492.7,181.8v-10.3c1.4,0,2.7,0.5,3.6,1.5c1,1,1.5,2.3,1.5,3.6c0,1.4-0.5,2.7-1.5,3.6
				C495.4,181.2,494.1,181.8,492.7,181.8z"/>
		</g>
		<path class="st5" d="M491.7,169.3c-1.5,0-3,0.4-4.2,1.3c-1.3,0.8-2.2,2-2.8,3.4c-0.6,1.4-0.7,2.9-0.4,4.4c0.3,1.5,1,2.8,2.1,3.9
			c1.1,1.1,2.4,1.8,3.9,2.1s3,0.1,4.4-0.4c1.4-0.6,2.6-1.6,3.4-2.8c0.8-1.3,1.3-2.7,1.3-4.2c0-2-0.8-4-2.2-5.4
			C495.7,170.1,493.7,169.3,491.7,169.3z M491.7,181.6c-0.9,0-1.8-0.3-2.6-0.8c-0.8-0.5-1.4-1.3-1.7-2.1c-0.4-0.9-0.4-1.8-0.3-2.7
			c0.2-0.9,0.6-1.8,1.3-2.4c0.7-0.7,1.5-1.1,2.4-1.3c0.9-0.2,1.9-0.1,2.7,0.3c0.9,0.4,1.6,1,2.1,1.7c0.5,0.8,0.8,1.7,0.8,2.6
			c0,1.2-0.5,2.4-1.4,3.3C494.1,181.1,493,181.6,491.7,181.6z"/>
		<path class="st6" d="M491.7,169.3c-1.5,0-3,0.4-4.2,1.3c-1.3,0.8-2.2,2-2.8,3.4c-0.6,1.4-0.7,2.9-0.4,4.4c0.3,1.5,1,2.8,2.1,3.9
			c1.1,1.1,2.4,1.8,3.9,2.1s3,0.1,4.4-0.4c1.4-0.6,2.6-1.6,3.4-2.8c0.8-1.3,1.3-2.7,1.3-4.2c0-2-0.8-4-2.2-5.4
			C495.7,170.1,493.7,169.3,491.7,169.3z M491.7,181.6c-0.9,0-1.8-0.3-2.6-0.8c-0.8-0.5-1.4-1.3-1.7-2.1c-0.4-0.9-0.4-1.8-0.3-2.7
			c0.2-0.9,0.6-1.8,1.3-2.4c0.7-0.7,1.5-1.1,2.4-1.3c0.9-0.2,1.9-0.1,2.7,0.3c0.9,0.4,1.6,1,2.1,1.7c0.5,0.8,0.8,1.7,0.8,2.6
			c0,1.2-0.5,2.4-1.4,3.3C494.1,181.1,493,181.6,491.7,181.6z"/>
		<path class="st5" d="M462.3,163.4h29.4v27.1c0,1.5-0.6,3-1.7,4.1c-1.1,1.1-2.5,1.7-4.1,1.7h-17.9c-1.5,0-3-0.6-4.1-1.7
			c-1.1-1.1-1.7-2.5-1.7-4.1V163.4z"/>
		<path class="st6" d="M486.4,163.4v27.2c0,1.5-0.6,3-1.7,4.1c-1.1,1.1-2.5,1.7-4.1,1.7h2.9c1.5,0,3-0.6,4.1-1.7
			c1.1-1.1,1.7-2.5,1.7-4.1v-27.2H486.4z"/>
		<path class="st7" d="M468.1,141.5c-0.3,0-0.5,0.1-0.7,0.2c-0.2,0.1-0.4,0.3-0.6,0.5c-0.4,0.7,0.3,1.5,1,2c1.2,0.9,2.4,1.8,3.2,3
			c0.8,1.2,1.1,3,0.2,4.2c-1.1,1.6-3.9,1.9-4.1,3.8c-0.2,1.2,0.9,2.3,2,2.9c2.6,1.5,6.1,1.9,8,4.3c0.8-1.6,2.6-2.6,4.3-3
			c1.8-0.4,3.6-0.4,5.4-0.6c0.3,0,0.6-0.1,0.8-0.2c0.3-0.1,0.5-0.3,0.7-0.6c0.5-1-0.9-2.2-0.4-3.3c0.4-0.8,1.5-0.7,2.3-1
			c1.3-0.5,1.9-2.2,1.5-3.5c-0.4-1.4-1.4-2.4-2.5-3.3c-3-2.3-6.6-3.7-10.2-4.7c-1.7-0.5-3.7-1.2-5.4-1.3
			C471.7,140.7,469.8,141.2,468.1,141.5z"/>
		<path class="st8" d="M261.9,203.2l-61.4,191.4"/>
		<g class="st3">
			
				<linearGradient id="SVGID_4_" gradientUnits="userSpaceOnUse" x1="215.232" y1="-363814.125" x2="215.232" y2="-33102.5156" gradientTransform="matrix(1 0 0 -1 0 441.89)">
				<stop  offset="0" style="stop-color:#808080;stop-opacity:0.25"/>
				<stop  offset="0.5351" style="stop-color:#808080;stop-opacity:0.12"/>
				<stop  offset="1" style="stop-color:#808080;stop-opacity:0.1"/>
			</linearGradient>
			<path class="st9" d="M309.5,416.2c-7.6,0.4-14.3,6.8-14.3,6.8l-3.3-8.1l-0.3,0.1c1.6-7,34-150.5,1.6-162.8
				c-24.9-9.5-51.3-21.3-72-20.8v-33.9h29v-1.2h23c4.4-3.1-2-5.3-9.1-6.7c0.3-0.3,0.5-0.7,0.8-1.1l36.8-66c0,0,8.5-13.9,3-20.5
				c-5.4-6.6-13.3,16.9-13.3,16.9l-30.2,43.5c0,0-30.5-31.8-49.9-47.6c-2.2-2.1-4.6-4-7.2-5.5c-3.5-2.4-6.2-3.6-7.5-3.2c0,0,0,0,0,0
				c-2.9-0.8-6-1.2-9-1.2H185v-5c5.4-1.8,10.4-4.7,14.5-8.7c4.1-3.9,7.4-8.7,9.4-14c3.4-5.6,5.5-12,6.1-18.6
				c0.6-6.6-0.3-13.2-2.6-19.4c0.4,0,0.7-0.2,1-0.4c1.1-0.7,1.2-2.2,1.1-3.5c-0.4-4.4-1.8-8.5-4.2-12.2c-2.4-3.7-5.6-6.7-9.4-8.8
				c-3.1-1.7-6.6-2.8-8.8-5.5c-1.9-2.3-2.8-5.5-5.1-7.3c-2.8-2.2-6.8-1.8-10.2-0.8c-3.8,1.1-7.4,2.8-10.7,5c-3.7,2.5-7,5.8-11.3,7.2
				c-3,1-6.3,1-9.4,1.9c-2.3,0.7-4.5,2-6.2,3.7c-1.8,1.7-3.1,3.8-3.9,6.1c-0.8,2.5-1.1,5.1-0.9,7.7c-1.9,3.1-3.3,6.4-4.3,9.9
				c-0.2,0.1-0.5,0.2-0.7,0.4l0.7-0.3c-2.3,7.8-2.4,16.1-0.2,23.9s6.5,14.9,12.5,20.4c4.7,6.2,11.2,10.8,18.6,13.2v6
				c-5.3,1.1-10.3,3.2-14.8,6.1l0,0c0,0-0.4,0.2-1,0.7c-0.1,0-0.1,0.1-0.2,0.1c-4.5,3-19.5,14.1-18.9,26.1c0,0.5,0,0.9,0,1.4
				c-0.8,3.5-1.2,7-1.2,10.6v86.9c0,9.6,3.2,18.9,9.2,26.5c-12.6,2.8-20.6,7.1-20.6,11.9c0.1,0.4,0.1,0.8,0,1.2
				c0,8.5,25.4,15.4,56.8,15.4c3.8,0,7.5-0.1,11.1-0.3l35.4,28.7l-56.8,91.2c0,0-18.7,14.5-4.2,19.3c14.5,4.8,44.1,8.5,44.1,8.5
				s4.8-8.5-1.8-12.1c-6.6-3.6-15.7-1.8-15.7-1.8l1.2-7.3c0,0,98.5-84.6,77.9-113.6c-3.9-5.5-7.9-11.3-11.8-16.9l15.5,1.4l3.5,132.8
				l0.4-0.1c-0.9,2.6-7.1,22.3,6.7,19c14.9-3.6,41.9-16.1,41.9-16.1S317,415.7,309.5,416.2z M250.2,187.7l-29-8.4v-24.8l31.5,33.5
				C251.2,187.8,250.2,187.7,250.2,187.7z"/>
		</g>
		<path d="M172.6,101c23.5,0,42.5-19,42.5-42.5c0-23.5-19-42.5-42.5-42.5s-42.5,19-42.5,42.5C130.1,82,149.1,101,172.6,101z"/>
		<path class="st10" d="M221.1,156l32.5,34.5c0.7,0.7,1.5,1.3,2.5,1.6c0.9,0.3,1.9,0.4,2.9,0.3c1-0.1,1.9-0.5,2.8-1
			c0.8-0.6,1.5-1.3,2-2.2l36-64.5l-10-3.5l-29.5,42.5c0,0-55.5-57.8-63.2-54.9C189.1,111.6,221.1,156,221.1,156z"/>
		<path class="st11" d="M159.1,275.3l-47.9,124.1"/>
		<path class="st11" d="M182.7,275.3l47.9,124.1"/>
		<path class="st12" d="M170.9,291.2c30.7,0,55.5-6.7,55.5-15.1s-24.9-15.1-55.5-15.1c-30.7,0-55.5,6.7-55.5,15.1
			S140.2,291.2,170.9,291.2z"/>
		<path class="st13" d="M170.9,290.1c30.7,0,55.5-6.7,55.5-15.1c0-8.3-24.9-15.1-55.5-15.1c-30.7,0-55.5,6.7-55.5,15.1
			C115.3,283.3,140.2,290.1,170.9,290.1z"/>
		<path class="st11" d="M147.5,302.5l52.4,16.1"/>
		<path class="st11" d="M194.2,302.5l-52.4,16.1"/>
		<path class="st14" d="M171.5,107.5H188c8.8,0,17.2,3.5,23.4,9.7c6.2,6.2,9.7,14.6,9.7,23.4V228h-94.5v-75.6
			c0-11.9,4.7-23.4,13.2-31.8S159.6,107.5,171.5,107.5z"/>
		<path class="st15" d="M126.6,228h94.5v51.4h-52.6c-11.1,0-21.8-4.4-29.7-12.3c-7.9-7.9-12.3-18.5-12.3-29.7V228z"/>
		<path class="st16" d="M127.8,143l57.8,54.9h63.8v-8.3l-54.9-15.9l-47-58C147.5,115.7,126.2,128.8,127.8,143z"/>
		<path class="st10" d="M127.8,141.8l57.8,54.9h63.8v-8.3l-54.9-15.9l-47-58C147.5,114.5,126.2,127.7,127.8,141.8z"/>
		<path class="st17" d="M249.5,188.5c0,0,30.7,2.4,22.5,8.3h-22.5V188.5z"/>
		<path class="st17" d="M289.6,121.1c0,0,7.7-23,13-16.5c5.3,6.5-3,20.1-3,20.1L289.6,121.1z"/>
		<path class="st16" d="M126.6,228v2.8l94.5,0.2v-3H126.6z"/>
		<path class="st15" d="M200.1,282.7l63.6,5.8l3.5,129.8l22.8-7.4c0,0,34-147.1,1.6-159.5C259,239,223.9,222.7,203,236
			C182,249.3,200.1,282.7,200.1,282.7z"/>
		<path class="st6" d="M204,242.8c0,0,34.9,17.7,39.6,37.8L204,242.8z"/>
		<path class="st15" d="M166.7,278.8l49.6,40.2l-55.5,89.2l23,6.5c0,0,96.3-82.7,76.2-111.1c-20.1-28.4-40.2-61.4-65-62
			C170.3,241,166.7,278.8,166.7,278.8z"/>
		<path class="st16" d="M244.7,148.3l12.4,21.3l3-5.9L244.7,148.3z"/>
		<path class="st18" d="M160.8,408.2c0,0-18.3,14.2-4.1,18.9c14.2,4.7,43.1,8.3,43.1,8.3s4.7-8.3-1.8-11.8
			c-6.5-3.5-15.4-1.8-15.4-1.8l1.2-7.1L160.8,408.2z"/>
		<path class="st18" d="M267.7,417.9c0,0-8,22.3,6.5,18.8c14.5-3.5,41-15.8,41-15.8s-0.4-9.5-7.8-9.1c-7.4,0.4-14,6.6-14,6.6
			l-3.2-7.9L267.7,417.9z"/>
		<path class="st17" d="M173.8,86.8L173.8,86.8c-6.5,0-11.8,5.3-11.8,11.8v11.8c0,6.5,5.3,11.8,11.8,11.8l0,0
			c6.5,0,11.8-5.3,11.8-11.8V98.7C185.6,92.1,180.4,86.8,173.8,86.8z"/>
		<path class="st16" d="M173.8,88c-3.1,0-6.1,1.2-8.4,3.5c-2.2,2.2-3.5,5.2-3.5,8.4v4c7.7,2.5,16,2.5,23.6,0v-4
			c0-3.1-1.2-6.1-3.5-8.4C180,89.3,177,88,173.8,88z"/>
		<path class="st17" d="M173.8,104.6c20.9,0,37.8-16.9,37.8-37.8S194.7,29,173.8,29C152.9,29,136,45.9,136,66.8
			S152.9,104.6,173.8,104.6z"/>
		<path class="st16" d="M136,65c0,0,9.5,2.4,14.8-8.3c5.3-10.7,9.5-16.6,31.3-10.3c21.9,6.3,26.3,7.1,27.3,1.1
			c0.7-4.1-7.1-14.1-12.1-20c-2.4-2.9-6.4-4.6-10.7-4.6H162l-14.8,6.8L136,39.7l-2.4,13.2L136,65z"/>
		<path d="M136,63.9c0,0,9.5,2.4,14.8-8.3c5.3-10.7,9.5-16.6,31.3-10.3c21.9,6.3,26.3,7.1,27.3,1.1c0.7-4.1-7.1-14.1-12.1-20
			c-2.4-2.9-6.4-4.6-10.7-4.6H162l-14.8,6.8L136,38.5l-2.4,13.2L136,63.9z"/>
		<path class="st17" d="M139.9,71.5c2.1,0,3.8-3.4,3.8-7.7s-1.7-7.7-3.8-7.7s-3.8,3.4-3.8,7.7S137.7,71.5,139.9,71.5z"/>
		<path d="M137.1,44c-0.9-4.9-1.7-10.1-0.1-14.9c0.8-2.3,2.1-4.3,3.8-6c1.7-1.7,3.8-2.9,6.1-3.6c3-0.9,6.2-0.9,9.2-1.9
			c4.2-1.4,7.4-4.6,11.1-7c3.2-2.2,6.7-3.9,10.4-4.9c3.3-1,7.3-1.3,10,0.8c2.3,1.8,3.1,4.9,5,7.2c2.2,2.6,5.6,3.7,8.6,5.4
			c3.7,2.1,6.9,5.1,9.2,8.6c2.3,3.6,3.7,7.7,4.1,11.9c0.1,1.3,0,2.8-1.1,3.5c-0.7,0.3-1.4,0.5-2.2,0.4C196.2,43.3,181,43,166,41.7
			c-4.7-0.4-9.4-1-14.1-0.8c-7.3,0.3-14.4,2.3-20.7,5.8"/>
		<path class="st19" d="M71.7,381.2H19.4C8.7,381.2,0,389.9,0,400.6l0,0c0,10.7,8.7,19.4,19.4,19.4h52.3c10.7,0,19.4-8.7,19.4-19.4
			C91,389.9,82.4,381.2,71.7,381.2z"/>
		
			<linearGradient id="SVGID_5_" gradientUnits="userSpaceOnUse" x1="340.241" y1="-662.4399" x2="340.241" y2="-657.13" gradientTransform="matrix(1 0 0 -1 0 441.89)">
			<stop  offset="0" style="stop-color:#808080;stop-opacity:0.25"/>
			<stop  offset="0.5351" style="stop-color:#808080;stop-opacity:0.12"/>
			<stop  offset="1" style="stop-color:#808080;stop-opacity:0.1"/>
		</linearGradient>
		<path class="st20" d="M340.2,242.9c0.2,0,0.4-0.1,0.6-0.3c0.2-0.2,0.2-0.4,0.2-0.6c0-0.2-0.1-0.5-0.2-0.6
			c-0.2-0.2-0.4-0.3-0.6-0.3c-0.2,0-0.4,0.1-0.6,0.3c-0.2,0.2-0.2,0.4-0.2,0.6c0,0.2,0.1,0.4,0.2,0.6
			C339.8,242.8,340,242.9,340.2,242.9z"/>
		<path class="st8" d="M470.3,203.2l61.4,218.6"/>
		<path class="st21" d="M532,196.8H200.2v12.9H532V196.8z"/>
		<path class="st22" d="M332.5,193.8h-46.7c-2.1,0-3.8,1.7-3.8,3.8l0,0c0,2.1,1.7,3.8,3.8,3.8h46.7c2.1,0,3.8-1.7,3.8-3.8
			C336.3,195.5,334.6,193.8,332.5,193.8z"/>
		<g class="st3">
			
				<linearGradient id="SVGID_6_" gradientUnits="userSpaceOnUse" x1="382.5815" y1="-31531.1094" x2="382.5815" y2="-16765.0098" gradientTransform="matrix(1 0 0 -1 0 441.89)">
				<stop  offset="0" style="stop-color:#808080;stop-opacity:0.25"/>
				<stop  offset="0.5351" style="stop-color:#808080;stop-opacity:0.12"/>
				<stop  offset="1" style="stop-color:#808080;stop-opacity:0.1"/>
			</linearGradient>
			<path class="st23" d="M433.5,108.2H331.7c-9.2,0-16.7,7.5-16.7,16.7v60.1c0,9.2,7.5,16.7,16.7,16.7h101.8
				c9.2,0,16.7-7.5,16.7-16.7v-60.1C450.1,115.6,442.7,108.2,433.5,108.2z"/>
		</g>
		<path class="st24" d="M429.6,109.9h-96.3c-8.8,0-15.9,7.1-15.9,15.9v60c0,8.8,7.1,15.9,15.9,15.9h96.3c8.8,0,15.9-7.1,15.9-15.9
			v-60C445.4,117,438.3,109.9,429.6,109.9z"/>
		<path class="st22" d="M431.3,109.9h-96.3c-8.8,0-15.9,7.1-15.9,15.9v60c0,8.8,7.1,15.9,15.9,15.9h96.3c8.8,0,15.9-7.1,15.9-15.9
			v-60C447.2,117,440.1,109.9,431.3,109.9z"/>
		<path class="st25" d="M389.2,159.2c2.3,0,4.1-1.9,4.1-4.1c0-2.3-1.9-4.1-4.1-4.1s-4.1,1.9-4.1,4.1
			C385,157.4,386.9,159.2,389.2,159.2z"/>
	</g>
</g>
</svg>
